<svg width="24" height="24" viewBox="0 0 24 24" fill="none" xmlns="http://www.w3.org/2000/svg">
<circle cx="12" cy="12" r="12" fill="url(#paint0_linear_0_191)"/>
<path opacity="0.8" d="M7.90323 10.412C7.94723 9.89133 8.13423 9.41833 8.46423 8.993C8.79423 8.56033 9.2709 8.21567 9.89423 7.959C10.5176 7.70233 11.2766 7.574 12.1712 7.574C12.9339 7.574 13.5976 7.66933 14.1622 7.86C14.7342 8.05067 15.1742 8.31833 15.4822 8.663C15.7976 9.00767 15.9552 9.41467 15.9552 9.884C15.9552 10.2507 15.8416 10.588 15.6142 10.896C15.3942 11.204 15.0422 11.4497 14.5582 11.633C14.0816 11.809 13.4582 11.8933 12.6882 11.886V11.655C13.4069 11.6257 14.0229 11.677 14.5362 11.809C15.0496 11.941 15.4419 12.1573 15.7132 12.458C15.9919 12.7587 16.1312 13.14 16.1312 13.602C16.1312 14.1007 15.9699 14.5443 15.6472 14.933C15.3246 15.3217 14.8552 15.626 14.2392 15.846C13.6306 16.066 12.8826 16.176 11.9952 16.176C11.1372 16.176 10.3892 16.0587 9.75123 15.824C9.11323 15.5893 8.61456 15.2557 8.25523 14.823C7.90323 14.383 7.71623 13.8697 7.69423 13.283H9.96023C10.0189 13.6497 10.2096 13.932 10.5322 14.13C10.8622 14.328 11.3499 14.427 11.9952 14.427C12.5819 14.427 13.0292 14.339 13.3372 14.163C13.6526 13.987 13.8102 13.7413 13.8102 13.426C13.8102 13.2427 13.7589 13.0887 13.6562 12.964C13.5609 12.8393 13.3886 12.7477 13.1392 12.689C12.8899 12.623 12.5416 12.59 12.0942 12.59H10.6752V11.05H12.0942C12.6736 11.05 13.0769 10.973 13.3042 10.819C13.5389 10.665 13.6562 10.4597 13.6562 10.203C13.6562 9.92433 13.5206 9.708 13.2492 9.554C12.9852 9.4 12.5856 9.323 12.0502 9.323C11.4782 9.323 11.0382 9.41833 10.7302 9.609C10.4222 9.79967 10.2389 10.0673 10.1802 10.412H7.90323Z" fill="white"/>
<defs>
<linearGradient id="paint0_linear_0_191" x1="5.96047e-08" y1="16.5" x2="24" y2="6.5" gradientUnits="userSpaceOnUse">
<stop stop-color="#9F7437"/>
<stop offset="1" stop-color="#E3D293"/>
</linearGradient>
</defs>
</svg>
