<svg width="24" height="24" viewBox="0 0 24 24" fill="none" xmlns="http://www.w3.org/2000/svg">
<circle cx="12" cy="12" r="12" fill="url(#paint0_linear_0_199)"/>
<path opacity="0.8" d="M7.78171 10.72C7.82571 10.0747 8.03838 9.51733 8.41971 9.048C8.80105 8.57133 9.30705 8.20833 9.93771 7.959C10.5757 7.70233 11.2944 7.574 12.0937 7.574C12.8564 7.574 13.52 7.69133 14.0847 7.926C14.6567 8.15333 15.1004 8.47233 15.4157 8.883C15.731 9.29367 15.8887 9.77033 15.8887 10.313C15.8887 10.731 15.775 11.1233 15.5477 11.49C15.3204 11.8493 14.9647 12.205 14.4807 12.557C13.9967 12.9017 13.3624 13.2647 12.5777 13.646L10.3117 14.779L10.2237 14.196H16.1197V16H7.95771V14.416L11.4997 12.425C12.0497 12.1097 12.475 11.8457 12.7757 11.633C13.0837 11.413 13.3 11.2113 13.4247 11.028C13.5567 10.8447 13.6227 10.6503 13.6227 10.445C13.6227 10.2177 13.5604 10.0233 13.4357 9.862C13.3184 9.69333 13.1387 9.56133 12.8967 9.466C12.6547 9.37067 12.3577 9.323 12.0057 9.323C11.5657 9.323 11.2064 9.389 10.9277 9.521C10.649 9.64567 10.44 9.81433 10.3007 10.027C10.1614 10.2323 10.077 10.4633 10.0477 10.72H7.78171Z" fill="white"/>
<defs>
<linearGradient id="paint0_linear_0_199" x1="5.96047e-08" y1="16.5" x2="24" y2="6.5" gradientUnits="userSpaceOnUse">
<stop stop-color="#9F7437"/>
<stop offset="1" stop-color="#E3D293"/>
</linearGradient>
</defs>
</svg>
