<svg width="54" height="54" viewBox="0 0 54 54" fill="none" xmlns="http://www.w3.org/2000/svg">
<circle cx="27" cy="27" r="26" transform="matrix(-1 0 0 1 54.0001 0)" stroke="white" stroke-opacity="0.19" stroke-width="2"/>
<path d="M19.2663 26.3706L25.63 20.2456C25.8015 20.0862 26.0311 19.998 26.2695 20C26.5078 20.002 26.7358 20.094 26.9044 20.2563C27.0729 20.4185 27.1685 20.638 27.1706 20.8674C27.1727 21.0968 27.0811 21.3178 26.9155 21.4829L22.1036 26.1142H34.091C34.3321 26.1142 34.5634 26.2064 34.7339 26.3705C34.9043 26.5346 35.0001 26.7572 35.0001 26.9892C35.0001 27.2213 34.9043 27.4439 34.7339 27.608C34.5634 27.7721 34.3321 27.8642 34.091 27.8642H22.1036L26.9155 32.4956C27.0023 32.5763 27.0715 32.6729 27.1192 32.7796C27.1668 32.8864 27.1919 33.0012 27.193 33.1174C27.194 33.2336 27.171 33.3488 27.1253 33.4563C27.0796 33.5639 27.0121 33.6616 26.9267 33.7437C26.8414 33.8259 26.7399 33.8908 26.6281 33.9348C26.5164 33.9788 26.3967 34.001 26.276 34C26.1553 33.999 26.036 33.9748 25.9251 33.929C25.8142 33.8831 25.7139 33.8164 25.63 33.7329L19.2663 27.6079C19.0959 27.4438 19.0001 27.2213 19.0001 26.9892C19.0001 26.7572 19.0959 26.5347 19.2663 26.3706Z" fill="white"/>
</svg>
