<svg width="38" height="40" viewBox="0 0 38 40" fill="none" xmlns="http://www.w3.org/2000/svg">
<path d="M11.5961 10.5V30H6.26612V12.372L8.76212 14.686L0.364122 16.168V12.008L7.64412 10.5H11.5961Z" fill="white"/>
<path opacity="0.4" d="M23.2401 15H25.7201L20.4001 32.62H17.9201L23.2401 15ZM31.4568 30.2C28.2168 30.2 26.2368 27.94 26.2368 25.54H29.1368C29.1968 26.62 30.1368 27.56 31.4768 27.56C32.7568 27.56 33.8568 26.64 33.8568 25.16C33.8568 23.7 32.8368 22.8 31.5168 22.8C30.5368 22.8 29.5568 23.28 29.1968 24.2H26.3368L27.6368 15.8H35.7568V18.36H29.9168L29.4968 21.16C30.1768 20.6 31.0968 20.32 32.1368 20.32C34.8568 20.32 36.7568 22.3 36.7568 25.06C36.7568 27.8 34.7368 30.2 31.4568 30.2Z" fill="white"/>
</svg>
