<svg width="54" height="54" viewBox="0 0 54 54" fill="none" xmlns="http://www.w3.org/2000/svg">
<circle cx="27.0001" cy="27" r="27" fill="white" fill-opacity="0.12"/>
<path d="M34.7339 26.3706L28.3703 20.2456C28.1988 20.0862 27.9692 19.998 27.7308 20C27.4924 20.002 27.2644 20.094 27.0959 20.2563C26.9273 20.4185 26.8317 20.638 26.8296 20.8674C26.8276 21.0968 26.9192 21.3178 27.0848 21.4829L31.8966 26.1142H19.9092C19.6681 26.1142 19.4369 26.2064 19.2664 26.3705C19.0959 26.5346 19.0001 26.7572 19.0001 26.9892C19.0001 27.2213 19.0959 27.4439 19.2664 27.608C19.4369 27.7721 19.6681 27.8642 19.9092 27.8642H31.8966L27.0848 32.4956C26.998 32.5763 26.9287 32.6729 26.8811 32.7796C26.8334 32.8864 26.8083 33.0012 26.8073 33.1174C26.8062 33.2336 26.8292 33.3488 26.8749 33.4563C26.9207 33.5639 26.9882 33.6616 27.0735 33.7437C27.1589 33.8259 27.2604 33.8908 27.3721 33.9348C27.4838 33.9788 27.6035 34.001 27.7242 34C27.845 33.999 27.9642 33.9748 28.0752 33.929C28.1861 33.8831 28.2864 33.8164 28.3703 33.7329L34.7339 27.6079C34.9044 27.4438 35.0001 27.2213 35.0001 26.9892C35.0001 26.7572 34.9044 26.5347 34.7339 26.3706Z" fill="white"/>
</svg>
