<svg width="27" height="26" viewBox="0 0 27 26" fill="none" xmlns="http://www.w3.org/2000/svg">
<g filter="url(#filter0_b_0_503)">
<circle cx="13.4375" cy="13" r="13" fill="white"/>
</g>
<path d="M9.35105 11.87C9.39105 11.3967 9.55772 10.97 9.85105 10.59C10.1511 10.21 10.5744 9.91 11.1211 9.69C11.6677 9.46333 12.3244 9.35 13.0911 9.35C13.7644 9.35 14.3477 9.43667 14.8411 9.61C15.3344 9.78333 15.7177 10.0233 15.9911 10.33C16.2644 10.6367 16.4011 11 16.4011 11.42C16.4011 11.76 16.2977 12.07 16.0911 12.35C15.8911 12.6233 15.5777 12.8433 15.1511 13.01C14.7244 13.17 14.1844 13.2467 13.5311 13.24V13.05C14.1644 13.0167 14.7044 13.0667 15.1511 13.2C15.6044 13.3267 15.9544 13.5267 16.2011 13.8C16.4477 14.0733 16.5711 14.4167 16.5711 14.83C16.5711 15.2767 16.4277 15.6767 16.1411 16.03C15.8611 16.3767 15.4511 16.65 14.9111 16.85C14.3711 17.05 13.7144 17.15 12.9411 17.15C12.1877 17.15 11.5311 17.0433 10.9711 16.83C10.4111 16.6167 9.97439 16.3167 9.66105 15.93C9.34772 15.5433 9.17772 15.09 9.15105 14.57H10.8511C10.9044 14.97 11.1044 15.2767 11.4511 15.49C11.7977 15.7033 12.2944 15.81 12.9411 15.81C13.5677 15.81 14.0411 15.7133 14.3611 15.52C14.6811 15.3267 14.8411 15.0567 14.8411 14.71C14.8411 14.5033 14.7877 14.33 14.6811 14.19C14.5744 14.05 14.3911 13.9467 14.1311 13.88C13.8777 13.8067 13.5311 13.77 13.0911 13.77H11.7711V12.58H13.0911C13.6644 12.58 14.0744 12.4933 14.3211 12.32C14.5677 12.1467 14.6911 11.9233 14.6911 11.65C14.6911 11.3433 14.5511 11.1067 14.2711 10.94C13.9911 10.7733 13.5677 10.69 13.0011 10.69C12.4211 10.69 11.9677 10.7933 11.6411 11C11.3144 11.2 11.1177 11.49 11.0511 11.87H9.35105Z" fill="#1F1F1F"/>
<defs>
<filter id="filter0_b_0_503" x="-2.5625" y="-3" width="32" height="32" filterUnits="userSpaceOnUse" color-interpolation-filters="sRGB">
<feFlood flood-opacity="0" result="BackgroundImageFix"/>
<feGaussianBlur in="BackgroundImageFix" stdDeviation="1.5"/>
<feComposite in2="SourceAlpha" operator="in" result="effect1_backgroundBlur_0_503"/>
<feBlend mode="normal" in="SourceGraphic" in2="effect1_backgroundBlur_0_503" result="shape"/>
</filter>
</defs>
</svg>
